<?xml version="1.0" encoding="UTF-8" standalone="no"?>
<!DOCTYPE svg PUBLIC "-//W3C//DTD SVG 1.1//EN"
 "http://www.w3.org/Graphics/SVG/1.1/DTD/svg11.dtd">
<!-- Generated by graphviz version 2.43.0 (0)
 -->
<!-- Title: %3 Pages: 1 -->
<svg width="940pt" height="930pt"
 viewBox="0.00 0.00 940.00 929.60" xmlns="http://www.w3.org/2000/svg" xmlns:xlink="http://www.w3.org/1999/xlink">
<g id="graph0" class="graph" transform="scale(1 1) rotate(0) translate(4 925.6)">
<title>%3</title>
<polygon fill="white" stroke="transparent" points="-4,4 -4,-925.6 936,-925.6 936,4 -4,4"/>
<!-- adult -->
<g id="adult" class="node">
<title>adult</title>
<ellipse fill="#ff0000" fill-opacity="0.501961" stroke="black" cx="329" cy="-594" rx="50.41" ry="50.41"/>
<text text-anchor="middle" x="329" y="-589" font-family="Times,serif" font-size="20.00">Adult</text>
</g>
<!-- invis_egg -->
<g id="node6" class="node">
<title>invis_egg</title>
</g>
<!-- adult&#45;&gt;invis_egg -->
<g id="egg_adult" class="edge">
<title>adult&#45;&gt;invis_egg</title>
<path fill="none" stroke="black" d="M351.58,-639.17C363.33,-662.66 377.31,-690.61 387.39,-710.78"/>
<polygon fill="black" stroke="black" points="384.26,-712.35 391.87,-719.73 390.52,-709.22 384.26,-712.35"/>
</g>
<!-- invis_parlad -->
<g id="node10" class="node">
<title>invis_parlad</title>
</g>
<!-- adult&#45;&gt;invis_parlad -->
<g id="adult_parlad" class="edge">
<title>adult&#45;&gt;invis_parlad</title>
<path fill="none" stroke="black" d="M329,-543.64C329,-521.8 329,-497.05 329,-478.48"/>
<polygon fill="black" stroke="black" points="332.5,-478.32 329,-468.32 325.5,-478.32 332.5,-478.32"/>
</g>
<!-- adult_old_invis -->
<g id="node21" class="node">
<title>adult_old_invis</title>
</g>
<!-- adult&#45;&gt;adult_old_invis -->
<g id="adult_old" class="edge">
<title>adult&#45;&gt;adult_old_invis</title>
<path fill="none" stroke="black" d="M278.64,-594C260.1,-594 239.45,-594 222.27,-594"/>
<polygon fill="black" stroke="black" points="222.07,-590.5 212.07,-594 222.07,-597.5 222.07,-590.5"/>
</g>
<!-- egg -->
<g id="egg" class="node">
<title>egg</title>
<ellipse fill="#ffff00" fill-opacity="0.501961" stroke="black" cx="473" cy="-882" rx="39.7" ry="39.7"/>
<text text-anchor="middle" x="473" y="-877" font-family="Times,serif" font-size="20.00">Egg</text>
</g>
<!-- invis_larva -->
<g id="node7" class="node">
<title>invis_larva</title>
</g>
<!-- egg&#45;&gt;invis_larva -->
<g id="egg_larva" class="edge">
<title>egg&#45;&gt;invis_larva</title>
<path fill="none" stroke="black" d="M490.8,-846.4C503.33,-821.34 519.86,-788.28 531.36,-765.29"/>
<polygon fill="black" stroke="black" points="534.61,-766.61 535.95,-756.1 528.35,-763.48 534.61,-766.61"/>
</g>
<!-- larva -->
<g id="larva" class="node">
<title>larva</title>
<ellipse fill="#00ff00" fill-opacity="0.501961" stroke="black" cx="617" cy="-594" rx="53.07" ry="53.07"/>
<text text-anchor="middle" x="617" y="-589" font-family="Times,serif" font-size="20.00">Larva</text>
</g>
<!-- invis_adult -->
<g id="node8" class="node">
<title>invis_adult</title>
</g>
<!-- larva&#45;&gt;invis_adult -->
<g id="larva_adult" class="edge">
<title>larva&#45;&gt;invis_adult</title>
<path fill="none" stroke="black" d="M563.79,-594C546.04,-594 526.66,-594 510.38,-594"/>
<polygon fill="black" stroke="black" points="510.18,-590.5 500.18,-594 510.18,-597.5 510.18,-590.5"/>
</g>
<!-- larva_starve -->
<g id="node17" class="node">
<title>larva_starve</title>
<text text-anchor="middle" x="761" y="-446.3" font-family="Times,serif" font-size="14.00">Starve</text>
</g>
<!-- larva&#45;&gt;larva_starve -->
<g id="larva_larvaStarve" class="edge">
<title>larva&#45;&gt;larva_starve</title>
<path fill="none" stroke="black" d="M654.83,-556.17C680.29,-530.71 713.16,-497.84 735.54,-475.46"/>
<polygon fill="black" stroke="black" points="738.1,-477.85 742.7,-468.3 733.15,-472.9 738.1,-477.85"/>
</g>
<!-- larva_cull -->
<g id="node18" class="node">
<title>larva_cull</title>
<text text-anchor="middle" x="761" y="-734.3" font-family="Times,serif" font-size="14.00">Cull</text>
</g>
<!-- larva&#45;&gt;larva_cull -->
<g id="larva_larvaCull" class="edge">
<title>larva&#45;&gt;larva_cull</title>
<path fill="none" stroke="black" d="M654.83,-631.83C680.29,-657.29 713.16,-690.16 735.54,-712.54"/>
<polygon fill="black" stroke="black" points="733.15,-715.1 742.7,-719.7 738.1,-710.15 733.15,-715.1"/>
</g>
<!-- dauer -->
<g id="dauer" class="node">
<title>dauer</title>
<ellipse fill="#0000ff" fill-opacity="0.501961" stroke="black" cx="617" cy="-306" rx="55.72" ry="55.72"/>
<text text-anchor="middle" x="617" y="-301" font-family="Times,serif" font-size="20.00">Dauer</text>
</g>
<!-- dauer_starve -->
<g id="node16" class="node">
<title>dauer_starve</title>
<text text-anchor="middle" x="761" y="-14.3" font-family="Times,serif" font-size="14.00">Starve</text>
</g>
<!-- dauer&#45;&gt;dauer_starve -->
<g id="dauer_dauerStarve" class="edge">
<title>dauer&#45;&gt;dauer_starve</title>
<path fill="none" stroke="black" d="M642.08,-255.83C672.61,-194.77 723.08,-93.84 747.26,-45.48"/>
<polygon fill="black" stroke="black" points="750.52,-46.78 751.87,-36.27 744.26,-43.65 750.52,-46.78"/>
</g>
<!-- dauer_cull -->
<g id="node19" class="node">
<title>dauer_cull</title>
<text text-anchor="middle" x="905" y="-302.3" font-family="Times,serif" font-size="14.00">Cull</text>
</g>
<!-- dauer&#45;&gt;dauer_cull -->
<g id="dauer_dauerCull" class="edge">
<title>dauer&#45;&gt;dauer_cull</title>
<path fill="none" stroke="black" d="M672.87,-306C730.32,-306 818.19,-306 867.7,-306"/>
<polygon fill="black" stroke="black" points="867.96,-309.5 877.96,-306 867.96,-302.5 867.96,-309.5"/>
</g>
<!-- parlad -->
<g id="parlad" class="node">
<title>parlad</title>
<ellipse fill="#800080" fill-opacity="0.501961" stroke="black" cx="329" cy="-306" rx="58.88" ry="58.88"/>
<text text-anchor="middle" x="329" y="-301" font-family="Times,serif" font-size="20.00">Parlad</text>
</g>
<!-- invis_dauer -->
<g id="node9" class="node">
<title>invis_dauer</title>
</g>
<!-- parlad&#45;&gt;invis_dauer -->
<g id="parlad_dauer" class="edge">
<title>parlad&#45;&gt;invis_dauer</title>
<path fill="none" stroke="black" d="M387.99,-306C404.11,-306 421.14,-306 435.68,-306"/>
<polygon fill="black" stroke="black" points="435.79,-309.5 445.79,-306 435.79,-302.5 435.79,-309.5"/>
</g>
<!-- parlad_starve -->
<g id="node15" class="node">
<title>parlad_starve</title>
<text text-anchor="middle" x="185" y="-14.3" font-family="Times,serif" font-size="14.00">Starve</text>
</g>
<!-- parlad&#45;&gt;parlad_starve -->
<g id="parlad_parladStarve" class="edge">
<title>parlad&#45;&gt;parlad_starve</title>
<path fill="none" stroke="black" d="M302.59,-253.18C271.9,-191.8 222.44,-92.88 198.65,-45.3"/>
<polygon fill="black" stroke="black" points="201.71,-43.6 194.11,-36.22 195.45,-46.73 201.71,-43.6"/>
</g>
<!-- invis_dauer_larva_a -->
<g id="node11" class="node">
<title>invis_dauer_larva_a</title>
</g>
<!-- invis_dauer_larva_b -->
<g id="node12" class="node">
<title>invis_dauer_larva_b</title>
</g>
<!-- invis_dauer_larva_a&#45;&gt;invis_dauer_larva_b -->
<g id="dauer_larva" class="edge">
<title>invis_dauer_larva_a&#45;&gt;invis_dauer_larva_b</title>
<path fill="none" stroke="black" d="M545,-396.17C545,-403.87 545,-413.03 545,-421.58"/>
<polygon fill="black" stroke="black" points="541.5,-421.59 545,-431.59 548.5,-421.59 541.5,-421.59"/>
</g>
<!-- invis_larva_dauer_b -->
<g id="node13" class="node">
<title>invis_larva_dauer_b</title>
</g>
<!-- invis_larva_dauer_a -->
<g id="node14" class="node">
<title>invis_larva_dauer_a</title>
</g>
<!-- invis_larva_dauer_a&#45;&gt;invis_larva_dauer_b -->
<g id="larva_dauer" class="edge">
<title>invis_larva_dauer_a&#45;&gt;invis_larva_dauer_b</title>
<path fill="none" stroke="black" d="M689,-503.83C689,-496.13 689,-486.97 689,-478.42"/>
<polygon fill="black" stroke="black" points="692.5,-478.41 689,-468.41 685.5,-478.41 692.5,-478.41"/>
</g>
<!-- adult_old -->
<g id="node20" class="node">
<title>adult_old</title>
<text text-anchor="middle" x="41" y="-590.2" font-family="Times,serif" font-size="16.00">Old Age</text>
</g>
</g>
</svg>
