<?xml version="1.0" encoding="UTF-8" standalone="no"?>
<!DOCTYPE svg PUBLIC "-//W3C//DTD SVG 1.1//EN"
 "http://www.w3.org/Graphics/SVG/1.1/DTD/svg11.dtd">
<!-- Generated by graphviz version 2.43.0 (0)
 -->
<!-- Title: %3 Pages: 1 -->
<svg width="787pt" height="918pt"
 viewBox="0.00 0.00 787.00 917.95" xmlns="http://www.w3.org/2000/svg" xmlns:xlink="http://www.w3.org/1999/xlink">
<g id="graph0" class="graph" transform="scale(1 1) rotate(0) translate(4 913.95)">
<title>%3</title>
<polygon fill="white" stroke="transparent" points="-4,4 -4,-913.95 783,-913.95 783,4 -4,4"/>
<!-- adult -->
<g id="adult" class="node">
<title>adult</title>
<ellipse fill="#ff0000" fill-opacity="0.501961" stroke="black" cx="176" cy="-594" rx="34.39" ry="34.39"/>
<text text-anchor="middle" x="176" y="-590.3" font-family="Times,serif" font-size="14.00">adult</text>
</g>
<!-- invis_egg -->
<g id="node6" class="node">
<title>invis_egg</title>
</g>
<!-- adult&#45;&gt;invis_egg -->
<g id="egg_adult" class="edge">
<title>adult&#45;&gt;invis_egg</title>
<path fill="none" stroke="black" d="M191.45,-624.89C204.21,-650.43 222.17,-686.33 234.4,-710.8"/>
<polygon fill="black" stroke="black" points="231.34,-712.5 238.94,-719.88 237.6,-709.37 231.34,-712.5"/>
</g>
<!-- invis_parlad -->
<g id="node10" class="node">
<title>invis_parlad</title>
</g>
<!-- adult&#45;&gt;invis_parlad -->
<g id="adult_parlad" class="edge">
<title>adult&#45;&gt;invis_parlad</title>
<path fill="none" stroke="black" d="M176,-559.51C176,-534.8 176,-501.91 176,-478.65"/>
<polygon fill="black" stroke="black" points="179.5,-478.39 176,-468.39 172.5,-478.39 179.5,-478.39"/>
</g>
<!-- egg -->
<g id="egg" class="node">
<title>egg</title>
<ellipse fill="#ffff00" fill-opacity="0.501961" stroke="black" cx="320" cy="-882" rx="27.9" ry="27.9"/>
<text text-anchor="middle" x="320" y="-878.3" font-family="Times,serif" font-size="14.00">egg</text>
</g>
<!-- invis_larva -->
<g id="node7" class="node">
<title>invis_larva</title>
</g>
<!-- egg&#45;&gt;invis_larva -->
<g id="egg_larva" class="edge">
<title>egg&#45;&gt;invis_larva</title>
<path fill="none" stroke="black" d="M332.54,-856.92C345.32,-831.37 365.07,-791.86 378.26,-765.48"/>
<polygon fill="black" stroke="black" points="381.46,-766.91 382.8,-756.4 375.2,-763.78 381.46,-766.91"/>
</g>
<!-- larva -->
<g id="larva" class="node">
<title>larva</title>
<ellipse fill="#00ff00" fill-opacity="0.501961" stroke="black" cx="464" cy="-594" rx="34.39" ry="34.39"/>
<text text-anchor="middle" x="464" y="-590.3" font-family="Times,serif" font-size="14.00">larva</text>
</g>
<!-- invis_adult -->
<g id="node8" class="node">
<title>invis_adult</title>
</g>
<!-- larva&#45;&gt;invis_adult -->
<g id="larva_adult" class="edge">
<title>larva&#45;&gt;invis_adult</title>
<path fill="none" stroke="black" d="M429.51,-594C407.67,-594 379.45,-594 357.13,-594"/>
<polygon fill="black" stroke="black" points="357.01,-590.5 347.01,-594 357.01,-597.5 357.01,-590.5"/>
</g>
<!-- larva_starve -->
<g id="node17" class="node">
<title>larva_starve</title>
<text text-anchor="middle" x="608" y="-446.3" font-family="Times,serif" font-size="14.00">Starve</text>
</g>
<!-- larva&#45;&gt;larva_starve -->
<g id="larva_larvaStarve" class="edge">
<title>larva&#45;&gt;larva_starve</title>
<path fill="none" stroke="black" d="M488.43,-569.57C514.57,-543.43 555.87,-502.13 582.44,-475.56"/>
<polygon fill="black" stroke="black" points="585.25,-477.69 589.85,-468.15 580.31,-472.75 585.25,-477.69"/>
<text text-anchor="middle" x="530.43" y="-526.37" font-family="Times,serif" font-size="14.00">0</text>
</g>
<!-- larva_cull -->
<g id="node18" class="node">
<title>larva_cull</title>
<text text-anchor="middle" x="608" y="-734.3" font-family="Times,serif" font-size="14.00">Cull</text>
</g>
<!-- larva&#45;&gt;larva_cull -->
<g id="larva_larvaCull" class="edge">
<title>larva&#45;&gt;larva_cull</title>
<path fill="none" stroke="black" d="M488.43,-618.43C514.57,-644.57 555.87,-685.87 582.44,-712.44"/>
<polygon fill="black" stroke="black" points="580.31,-715.26 589.85,-719.85 585.25,-710.31 580.31,-715.26"/>
<text text-anchor="middle" x="530.43" y="-669.23" font-family="Times,serif" font-size="14.00">0</text>
</g>
<!-- dauer -->
<g id="dauer" class="node">
<title>dauer</title>
<ellipse fill="#0000ff" fill-opacity="0.501961" stroke="black" cx="464" cy="-306" rx="37.89" ry="37.89"/>
<text text-anchor="middle" x="464" y="-302.3" font-family="Times,serif" font-size="14.00">dauer</text>
</g>
<!-- dauer_starve -->
<g id="node16" class="node">
<title>dauer_starve</title>
<text text-anchor="middle" x="608" y="-14.3" font-family="Times,serif" font-size="14.00">Starve</text>
</g>
<!-- dauer&#45;&gt;dauer_starve -->
<g id="dauer_dauerStarve" class="edge">
<title>dauer&#45;&gt;dauer_starve</title>
<path fill="none" stroke="black" d="M480.94,-272.12C509.78,-214.44 567.84,-98.32 594.3,-45.4"/>
<polygon fill="black" stroke="black" points="597.52,-46.79 598.86,-36.28 591.26,-43.66 597.52,-46.79"/>
<text text-anchor="middle" x="532.62" y="-162.56" font-family="Times,serif" font-size="14.00">0</text>
</g>
<!-- dauer_cull -->
<g id="node19" class="node">
<title>dauer_cull</title>
<text text-anchor="middle" x="752" y="-302.3" font-family="Times,serif" font-size="14.00">Cull</text>
</g>
<!-- dauer&#45;&gt;dauer_cull -->
<g id="dauer_dauerCull" class="edge">
<title>dauer&#45;&gt;dauer_cull</title>
<path fill="none" stroke="black" d="M501.95,-306C557.34,-306 659.7,-306 714.71,-306"/>
<polygon fill="black" stroke="black" points="714.73,-309.5 724.73,-306 714.73,-302.5 714.73,-309.5"/>
<text text-anchor="middle" x="603.33" y="-309.8" font-family="Times,serif" font-size="14.00">0</text>
</g>
<!-- parlad -->
<g id="parlad" class="node">
<title>parlad</title>
<ellipse fill="#800080" fill-opacity="0.501961" stroke="black" cx="176" cy="-306" rx="40.09" ry="40.09"/>
<text text-anchor="middle" x="176" y="-302.3" font-family="Times,serif" font-size="14.00">parlad</text>
</g>
<!-- invis_dauer -->
<g id="node9" class="node">
<title>invis_dauer</title>
</g>
<!-- parlad&#45;&gt;invis_dauer -->
<g id="parlad_dauer" class="edge">
<title>parlad&#45;&gt;invis_dauer</title>
<path fill="none" stroke="black" d="M216.5,-306C237.32,-306 262.53,-306 282.85,-306"/>
<polygon fill="black" stroke="black" points="282.99,-309.5 292.99,-306 282.99,-302.5 282.99,-309.5"/>
</g>
<!-- parlad_starve -->
<g id="node15" class="node">
<title>parlad_starve</title>
<text text-anchor="middle" x="32" y="-14.3" font-family="Times,serif" font-size="14.00">Starve</text>
</g>
<!-- parlad&#45;&gt;parlad_starve -->
<g id="parlad_parladStarve" class="edge">
<title>parlad&#45;&gt;parlad_starve</title>
<path fill="none" stroke="black" d="M157.91,-269.82C128.68,-211.36 71.72,-97.45 45.64,-45.28"/>
<polygon fill="black" stroke="black" points="48.74,-43.66 41.14,-36.28 42.48,-46.79 48.74,-43.66"/>
<text text-anchor="middle" x="96.77" y="-161.35" font-family="Times,serif" font-size="14.00">0</text>
</g>
<!-- invis_dauer_larva_a -->
<g id="node11" class="node">
<title>invis_dauer_larva_a</title>
</g>
<!-- invis_dauer_larva_b -->
<g id="node12" class="node">
<title>invis_dauer_larva_b</title>
</g>
<!-- invis_dauer_larva_a&#45;&gt;invis_dauer_larva_b -->
<g id="dauer_larva" class="edge">
<title>invis_dauer_larva_a&#45;&gt;invis_dauer_larva_b</title>
<path fill="none" stroke="black" d="M392,-396.17C392,-403.87 392,-413.03 392,-421.58"/>
<polygon fill="black" stroke="black" points="388.5,-421.59 392,-431.59 395.5,-421.59 388.5,-421.59"/>
</g>
<!-- invis_larva_dauer_b -->
<g id="node13" class="node">
<title>invis_larva_dauer_b</title>
</g>
<!-- invis_larva_dauer_a -->
<g id="node14" class="node">
<title>invis_larva_dauer_a</title>
</g>
<!-- invis_larva_dauer_a&#45;&gt;invis_larva_dauer_b -->
<g id="larva_dauer" class="edge">
<title>invis_larva_dauer_a&#45;&gt;invis_larva_dauer_b</title>
<path fill="none" stroke="black" d="M536,-503.83C536,-496.13 536,-486.97 536,-478.42"/>
<polygon fill="black" stroke="black" points="539.5,-478.41 536,-468.41 532.5,-478.41 539.5,-478.41"/>
</g>
</g>
</svg>
